<svg width="24" height="24" viewBox="0 0 24 24" fill="none" xmlns="http://www.w3.org/2000/svg">
<path d="M12 19.8995L16.9497 14.9497C19.6834 12.2161 19.6834 7.78392 16.9497 5.05025C14.2161 2.31658 9.78392 2.31658 7.05025 5.05025C4.31658 7.78392 4.31658 12.2161 7.05025 14.9497L12 19.8995ZM12 22.7279L5.63604 16.364C2.12132 12.8492 2.12132 7.15076 5.63604 3.63604C9.15076 0.12132 14.8492 0.12132 18.364 3.63604C21.8787 7.15076 21.8787 12.8492 18.364 16.364L12 22.7279ZM12 12C13.1046 12 14 11.1046 14 10C14 8.89543 13.1046 8 12 8C10.8954 8 10 8.89543 10 10C10 11.1046 10.8954 12 12 12ZM12 14C9.79086 14 8 12.2091 8 10C8 7.79086 9.79086 6 12 6C14.2091 6 16 7.79086 16 10C16 12.2091 14.2091 14 12 14Z" fill="#FF2626"/>
</svg>
