<svg width="24" height="24" viewBox="0 0 24 24" fill="none" xmlns="http://www.w3.org/2000/svg">
<path d="M13.1962 2.26986L16.4462 7.89903C16.7223 8.37732 16.5584 8.98891 16.0801 9.26505L14.7806 10.0142L15.7811 11.7472L14.049 12.7472L13.0485 11.0142L11.75 11.7651C11.2717 12.0412 10.6601 11.8774 10.384 11.3991L8.5462 8.21655C6.49383 8.83925 5 10.7462 5 13.002C5 13.6273 5.1148 14.2258 5.32447 14.7776C6.0992 14.286 7.01643 14.002 8 14.002C9.68408 14.002 11.1737 14.8346 12.0797 16.1106L19.7681 11.6724L20.7681 13.4044L12.8898 17.9529C12.962 18.2912 13 18.6421 13 19.002C13 19.3447 12.9655 19.6793 12.8999 20.0026L21 20.002V22.002L4.00054 22.0032C3.3723 21.1673 3 20.1281 3 19.002C3 17.9947 3.29782 17.0571 3.81021 16.2722C3.29276 15.2968 3 14.1836 3 13.002C3 10.0067 4.88131 7.4507 7.52677 6.45137L7.13397 5.76986C6.58169 4.81328 6.90944 3.5901 7.86603 3.03781L10.4641 1.53781C11.4207 0.985531 12.6439 1.31328 13.1962 2.26986ZM8 16.002C6.34315 16.002 5 17.3451 5 19.002C5 19.3526 5.06014 19.6891 5.17067 20.0019H10.8293C10.9399 19.6891 11 19.3526 11 19.002C11 17.3451 9.65685 16.002 8 16.002ZM11.4641 3.26986L8.86602 4.76986L11.616 9.533L14.2141 8.033L11.4641 3.26986Z" fill="#FF2626"/>
</svg>
