<svg width="40" height="40" viewBox="0 0 40 40" fill="none" xmlns="http://www.w3.org/2000/svg">
<path d="M5.83334 30.8333C5.83334 24.414 5.83334 9.16667 5.83334 9.16667C5.83334 6.40525 8.07193 4.16667 10.8333 4.16667H29.1667V25.8333C29.1667 25.8333 15.1938 25.8333 10.8333 25.8333C8.08334 25.8333 5.83334 28.0702 5.83334 30.8333Z" stroke="white" stroke-width="2" stroke-linejoin="round"/>
<path d="M29.1667 25.8333C29.1667 25.8333 11.7948 25.8333 10.8333 25.8333C8.07193 25.8333 5.83334 28.072 5.83334 30.8333C5.83334 33.5947 8.07193 35.8333 10.8333 35.8333C12.6743 35.8333 21.5632 35.8333 34.1667 35.8333V5.83333" stroke="white" stroke-width="2" stroke-linecap="round" stroke-linejoin="round"/>
<path d="M11.6667 30.8333H28.3333" stroke="white" stroke-width="2" stroke-linecap="round" stroke-linejoin="round"/>
</svg>
