<svg width="60" height="60" viewBox="0 0 60 60" fill="none" xmlns="http://www.w3.org/2000/svg">
<path d="M45.655 45.655L57.2075 57.2075M27.9075 53.0225C41.7775 53.0225 53.0225 41.7775 53.0225 27.9075C53.0225 14.0375 41.775 2.79248 27.9075 2.79248C14.035 2.79248 2.79248 14.0375 2.79248 27.9075C2.79248 41.7775 14.035 53.0225 27.9075 53.0225Z" stroke="#FF2626" stroke-width="2" stroke-linecap="round" stroke-linejoin="round"/>
<path d="M30.6185 15.2346C33.2425 12.5541 37.6368 12.4072 40.4339 14.9066C43.2309 17.4062 43.3719 21.6061 40.7481 24.2869L32.9245 32.2798L22.795 23.2276L30.6185 15.2346Z" fill="#FF2626" stroke="#FF2626" stroke-width="2"/>
<path d="M14.5961 31.6435C11.9723 34.3242 12.1127 38.5235 14.9095 41.0231C17.7066 43.5227 22.1016 43.3764 24.7256 40.6957L32.5491 32.7028L22.4196 23.6505L14.5961 31.6435Z" fill="#FFFDFD" stroke="#FF2626" stroke-width="2"/>
</svg>
