<svg width="60" height="60" viewBox="0 0 60 60" fill="none" xmlns="http://www.w3.org/2000/svg">
<path d="M22.0126 11.2749L33.4601 17.8849V31.1024L22.0126 37.7099L10.5651 31.1024V17.8849L22.0126 11.2749Z" stroke="#FF2626" stroke-width="2" stroke-linejoin="round"/>
<path d="M33.49 30.9673L44.935 37.5748V50.7923L33.49 57.4023L22.0425 50.7923V37.5748L33.49 30.9673Z" stroke="#FF2626" stroke-width="2" stroke-linejoin="round"/>
<path d="M44.965 11.2749L56.415 17.8849V31.1024L44.965 37.7099L33.52 31.1024V17.8849L44.965 11.2749Z" stroke="#FF2626" stroke-width="2" stroke-linejoin="round"/>
<path d="M44.88 11.3424V2.06738M49.9475 27.3874V20.9924M34.7 50.4199L28.795 46.6324M22.425 29.9549L27.3175 27.1899M22.075 51.0599L11.055 57.9349M10.73 17.9999L2.21753 13.6299M45.425 50.9499L55.0275 57.1699" stroke="#FF2626" stroke-width="2" stroke-linecap="round" stroke-linejoin="round"/>
</svg>
