<svg width="60" height="60" viewBox="0 0 60 60" fill="none" xmlns="http://www.w3.org/2000/svg">
<g clip-path="url(#clip0_1517_1897)">
<mask id="mask0_1517_1897" style="mask-type:luminance" maskUnits="userSpaceOnUse" x="0" y="0" width="60" height="60">
<path d="M60 0H0V60H60V0Z" fill="white"/>
</mask>
<g mask="url(#mask0_1517_1897)">
<path d="M32.5 55C37.9327 51.2398 40.8282 47.4393 41.1865 43.5978C41.5447 39.7563 40.385 36.8905 37.7073 35" stroke="#FF2626" stroke-width="2" stroke-linecap="round"/>
<path fill-rule="evenodd" clip-rule="evenodd" d="M34.5703 35.2782C37.6771 35.2782 40.1953 32.7597 40.1953 29.6532C40.1953 26.5467 37.6771 24.0283 34.5703 24.0283C31.4638 24.0283 28.9453 26.5467 28.9453 29.6532C28.9453 32.7597 31.4638 35.2782 34.5703 35.2782Z" stroke="#FF2626" stroke-width="2"/>
<path d="M30.3602 33.75L23.4729 40.7215L11.9824 29.231L34.9632 6.25L46.4537 17.7405L38.7205 25.474" stroke="#FF2626" stroke-width="2" stroke-linecap="round" stroke-linejoin="round"/>
<path d="M8.19824 35.1709L18.0256 44.7689" stroke="#FF2626" stroke-width="2" stroke-linecap="round"/>
<path d="M7.5 55H52.5" stroke="#FF2626" stroke-width="2" stroke-linecap="round"/>
</g>
</g>
<defs>
<clipPath id="clip0_1517_1897">
<rect width="60" height="60" fill="white"/>
</clipPath>
</defs>
</svg>
