<svg width="24" height="24" viewBox="0 0 24 24" fill="none" xmlns="http://www.w3.org/2000/svg">
<path fill-rule="evenodd" clip-rule="evenodd" d="M20 12C20 16.4183 16.4183 20 12 20C7.58172 20 4 16.4183 4 12C4 7.58172 7.58172 4 12 4C16.4183 4 20 7.58172 20 12ZM22 12C22 17.5228 17.5228 22 12 22C6.47715 22 2 17.5228 2 12C2 6.47715 6.47715 2 12 2C17.5228 2 22 6.47715 22 12ZM11.2929 8.46443C10.9024 8.07391 10.9024 7.44074 11.2929 7.05022C11.6834 6.65969 12.3166 6.65969 12.7071 7.05022L16.9497 11.2929C17.3403 11.6834 17.3403 12.3165 16.9497 12.7071L12.7071 16.9497C12.3166 17.3402 11.6834 17.3402 11.2929 16.9497C10.9024 16.5592 10.9024 15.926 11.2929 15.5355L13.8284 13H7.75736C7.20507 13 6.75736 12.5522 6.75736 12C6.75736 11.4477 7.20507 11 7.75736 11H13.8284L11.2929 8.46443Z" fill="white"/>
</svg>
